# xmcd CD database file
#
# Track frame offsets:
#	150
#	18390
#	38600
#	58790
#	83010
#	109875
#	137410
#	163075
#	182970
#	202985
#	217385
#	242365
#	261720
#
# Disc length: 3701 seconds
#
# Revision: 4
# Processed by: cddbd v1.5.2PL0 Copyright (c) Steve Scherf et al.
# Submitted via: CDex 1.70beta3
#
DISCID=ba0e730d
DTITLE=Free - Fire and Water
DYEAR=1970
DGENRE=Blues
TTITLE0=Fire and Water
TTITLE1=Oh I Wept
TTITLE2=Remember
TTITLE3=Heavy Load
TTITLE4=Mr. Big
TTITLE5=Don't Say You Love Me
TTITLE6=All Right Now
TTITLE7=Oh I Wept (Alternate Vocal Take)
TTITLE8=Fire and Water (New Stereo Mix)
TTITLE9=Fire and Water (BBC Session)
TTITLE10=All Right Now (BBC Session)
TTITLE11=All Right Now (Single Version)
TTITLE12=All Right Now (First Version)
EXTD=Island Remasters - 2001
EXTT0=
EXTT1=
EXTT2=
EXTT3=
EXTT4=
EXTT5=
EXTT6=
EXTT7=
EXTT8=
EXTT9=
EXTT10=
EXTT11=
EXTT12=
PLAYORDER=
